<svg width="17" height="20" viewBox="0 0 17 20" fill="none" xmlns="http://www.w3.org/2000/svg">
<g clip-path="url(#clip0_0_5)">
<path d="M14.0397 19.1995C12.9557 20.2515 11.7597 20.0875 10.6197 19.5915C9.40765 19.0855 8.29965 19.0535 7.01965 19.5915C5.42565 20.2795 4.57965 20.0795 3.61965 19.1995C-1.80035 13.6195 -1.00035 5.11952 5.15965 4.79952C6.65365 4.87952 7.69965 5.62551 8.57965 5.68751C9.88765 5.42151 11.1397 4.65952 12.5397 4.75952C14.2217 4.89552 15.4797 5.55951 16.3197 6.75351C12.8597 8.8335 13.6797 13.3935 16.8577 14.6735C16.2217 16.3435 15.4057 17.9935 14.0377 19.2135L14.0397 19.1995ZM8.45965 4.73952C8.29765 2.25952 10.3077 0.219531 12.6197 0.0195312C12.9377 2.87952 10.0196 5.01952 8.45965 4.73952Z" fill="#101623"/>
</g>
<defs>
<clipPath id="clip0_0_5">
<rect width="16.84" height="20" fill="white"/>
</clipPath>
</defs>
</svg>
