<svg width="58" height="58" viewBox="0 0 58 58" fill="none" xmlns="http://www.w3.org/2000/svg">
<path d="M12.0833 12.0833H26.5832C27.9124 12.0833 28.9999 10.9958 28.9999 9.66665C28.9999 8.33749 27.9124 7.25 26.5832 7.25H12.0833C9.42499 7.25 7.25 9.42499 7.25 12.0833V45.9165C7.25 48.5748 9.42499 50.7498 12.0833 50.7498H26.5832C27.9124 50.7498 28.9999 49.6623 28.9999 48.3331C28.9999 47.0039 27.9124 45.9165 26.5832 45.9165H12.0833V12.0833Z" fill="#0066CC"/>
<path d="M49.904 28.1534L43.1616 21.4109C42.9935 21.2383 42.7777 21.1197 42.5418 21.0703C42.306 21.021 42.0608 21.0432 41.8376 21.134C41.6144 21.2248 41.4234 21.3802 41.289 21.5802C41.1546 21.7802 41.083 22.0158 41.0832 22.2568V26.5826H24.1667C22.8375 26.5826 21.75 27.6701 21.75 28.9992C21.75 30.3284 22.8375 31.4159 24.1667 31.4159H41.0832V35.7417C41.0832 36.8292 42.3882 37.3608 43.1374 36.5875L49.8798 29.8451C50.3632 29.3859 50.3632 28.6126 49.904 28.1534Z" fill="#0066CC"/>
</svg>
